<!--?xml version="1.0" encoding="utf-8"?-->
<!-- Generator: Adobe Illustrator 23.0.1, SVG Export Plug-In . SVG Version: 6.00 Build 0)  -->
<svg version="1.1" id="Layer_1" xmlns="http://www.w3.org/2000/svg" xmlns:xlink="http://www.w3.org/1999/xlink" x="0px" y="0px" viewBox="0 0 1300 835" style="" xml:space="preserve">
<style type="text/css">
	.st0{fill:none;stroke:#FFD670;stroke-width:17;stroke-linejoin:round;stroke-miterlimit:10;}
	.st1{fill:#FFD670;}
	.st2{display:none;}
	.st3{fill:none;stroke:#000000;stroke-width:17;stroke-linecap:round;stroke-linejoin:round;stroke-miterlimit:10;}
	.st4{fill:none;stroke:#B4E077;stroke-width:17;stroke-linejoin:round;stroke-miterlimit:10;}
	.st5{fill:none;stroke:#CF885A;stroke-width:17;stroke-linecap:round;stroke-linejoin:round;stroke-miterlimit:10;}
</style>
<path class="st0 wSuKBmgc_0" d="M179.4,565.3c-0.4,12.7-0.5,53.4,0.1,66.1c0.5,4.6,0.6,9.6,3.1,13.3c4,6.3,11,9,17.4,8.1
	c297.7-0.3,595.4-0.2,893,0c6.7-0.8,14.3,1.1,20.3-3.3c4-2.7,6.1-8.3,6.6-13.6c0.5-17.9-0.1-63.7,0-81.6"></path>
<path class="st1 wSuKBmgc_1" d="M594.4,165.5c9.1-1.3,19.3,0.6,26.3,6.8c4.2,3.7,4.1,9.7,0,13.4c-6.9,4.4-15.5,5-23.5,4
	c-6.4-1.7-14.7-3.7-17.7-10.4C576.1,170.3,587.5,165.8,594.4,165.5z"></path>
<path class="st1 wSuKBmgc_2" d="M704.4,171.5c9.7-1.4,19.6,2.2,27.5,7.6c3.5,1.8,5.7,5.3,6.8,9c-0.3,3.5-2.8,7.1-6.8,7.1
	c-9.8,2.7-20.1-0.7-28.7-5.4c-4.2-2.9-9.8-6.4-8.3-12.5C695.7,172.7,700.9,172,704.4,171.5z"></path>
<path class="st1 wSuKBmgc_3" d="M482.5,184.6c5.3-0.4,11.8-2.1,16.5,1.4c3.3,2.3,2,7.2,0,10c-7.6,9.5-20.1,14.2-32,14.1
	c-4.4-0.3-10.5-3.6-8.7-8.8C462.7,192.1,472.8,186.7,482.5,184.6z"></path>
<path class="st1 wSuKBmgc_4" d="M820.4,194.4c7.2-0.8,14.9,0.4,21,4.3c3.9,2.5,3.5,9-0.3,11.4c-9.6,6.7-22.4,7.1-33.5,4.4
	c-4.4-1.2-9.7-5.1-8.3-10.2C802.9,196.2,812.8,195.5,820.4,194.4z"></path>
<path class="st1 wSuKBmgc_5" d="M662.1,221.1c6.5-1.6,13.3-0.7,19.8,0.7c0.9,1.6,2.6,4.9,3.5,6.5c-6.7,13.2-23.3,16.9-36.8,15.3
	c-4.2-0.7-10.3-4.8-7.7-9.6C644.8,225.9,654.1,223.1,662.1,221.1z"></path>
<path class="st1 wSuKBmgc_6" d="M356.9,230.9c10.7-5,24.5-6.9,34.3,1.2c-2.9,12.4-16.9,17.3-28.2,18c-5.6,0.2-13.7,0.7-16.8-5.3
	C344.7,237.7,351.9,233.7,356.9,230.9z"></path>
<path class="st1 wSuKBmgc_7" d="M554.4,232.5c11-1.6,23.5,0.4,31.8,8.3c3.3,2.8,5.2,8.8,1.9,12.3c-5.1,5.2-13.1,5.1-19.8,4.6
	c-8-1.4-16.5-4.8-21.4-11.6C543.3,240.1,548,232.8,554.4,232.5z"></path>
<path class="st1 wSuKBmgc_8" d="M918.4,234.5c10.8-1.9,22,2,30.4,8.7c3.9,2.4,7.5,8.7,4.1,12.7c-10.4,6.2-23.3,2.2-33.3-3.1c-5-3-10-8-8.4-14.5
	C912.9,236.1,915.7,234.9,918.4,234.5z"></path>
<path class="st1 wSuKBmgc_9" d="M767.4,238.5c5.5-0.4,11.6-1.5,16.6,1.5c3.2,1.8,6.1,5.7,4.5,9.4c-4,10-14.9,14.8-24.9,16.1
	c-6.8,1.2-15.3,0-18.7-6.7c-1.3-5.9,3.3-10.3,7.1-13.9C756.6,241.8,761.8,239.1,767.4,238.5z"></path>
<path class="st1 wSuKBmgc_10" d="M436.4,242.5c12.4-1.8,26,3.6,32.9,14.2c3,4.6,1.6,11.9-4.3,13.4c-13.3,3.6-28.5-2.6-36-14.1
	C425.3,250.1,430,242.7,436.4,242.5z"></path>
<path class="st1 wSuKBmgc_11" d="M847.4,249.5c13.1-2.3,28.1,2.1,36,13.2c2.5,5.3-1.8,9.3-6.6,10.2c-10.1,1.3-20.4-1.5-29.2-6.5
	c-3.7-2.6-7.8-6.3-7.6-11.2C840.6,251.6,844.2,249.8,847.4,249.5z"></path>
<path class="st2 wSuKBmgc_12" d="M126.1,835c-2-2.8,2.7-2.8,0.7,0H126.1z"></path>
<path class="st2 wSuKBmgc_13" d="M494,106.8c75.6-13.6,152.9-17.9,229.5-11.4c82.4,7.3,164.3,26.6,239.5,61.7c37.6,17.8,73.3,39.9,104.8,67.1
	c35.6,30.9,65.7,70.1,79.4,115.7c6.2,21.1,8.6,43.2,7.8,65.1c-0.9,16.2-10.1,31.4-23.6,40.2c10.7,13.4,14.4,31,15.5,47.8
	c-0.8,10.3-4.8,20.2-5,30.6c11.6,3.9,23.7,9.4,30.1,20.4c7.2,9.1,4.9,21.9,11.6,31.3c10.8,17.6,4.3,43.4-13.7,53.4
	c-4.6,2.7-9.6,4.5-14.7,5.8c-0.6,21.3,0.7,42.7-0.7,64c-2.1,22.8-22.6,42.1-45.4,43.5c-15.9,1.5-32,0.7-48,0.9
	c-288.3-0.2-576.7,0.2-865-0.2c-24,0-47.1-18.5-50.2-42.7c-1.5-16.8-0.4-33.7-1-50.6c-12.7-7.4-20.4-21.6-21-36
	c-0.6-3.6,0.2-7.4-0.9-10.9c-3.8-6.4-8.9-12.5-10.3-20.1c-4.9-17.9,3.9-37.8,19.3-47.7c6.6-4.8,14.5-7.3,22.1-10.1
	c1.2-20.1-3.4-40.5,1.4-60.3c1.6-8,4.7-15.5,7.7-23.1c-5.6-6.3-11.8-12.6-14.8-20.6c-3.2-8.1-3.4-17.1-3.5-25.6
	c-0.4-36.4,10.5-72.6,29.7-103.4c20.6-34.3,49.7-62.6,81.4-86.7c42.1-30.4,88.9-54.2,138.1-70.9C426.6,122.3,460.1,113.8,494,106.8"></path>
<path class="st3 wSuKBmgc_14" d="M193.3,425.3"></path>
<path class="st4 wSuKBmgc_15" d="M1103.2,513.2c-29.8,8.6-61.1,4.1-91.5,2.2c-33.6-2.8-67.2,1.9-100.7,3.7c-60.8,4.3-121.2-6.8-182-6.1
	c-26.7-0.1-53.3-2.2-80-2c-18-0.5-34.8,9.1-52.9,6.8c-20.7-1.1-40.2-8.6-60.5-12.2c-18.8-4.2-37.4,3-55.9,5.1
	c-39.1,2.5-77.6-7.2-116.7-6.3c-17.6,0.2-35,4.4-52.6,3c-9.3-0.5-18.4-2.2-27.6-3.2c-22.2-1.9-43.7,5.3-65.9,4.8
	c-16.5-0.4-35.1,0.3-49.3-9.8c-1.8-1-3.8-2.2-5.9-1.5c-5,1.3-10.4,3.2-13.6,7.6c-2.6,3.3-3.9,9.5,0.5,12c9,5.5,20.4,3.1,30.4,3.2
	c-11,7.2-24.2,18.1-20.6,33c0.7,6.3,8.4,7.4,13.4,8.7c19.1,4.1,35.7-7.6,52.2-14.9c20-9.8,43-14,65-9.4c11.6,2.8,21.8,9.1,31.8,15.4
	c13.1,8.5,29.3,13.3,44.9,9.7c22.8-4.2,40.1-21.5,62.7-26.3c11.2-2.6,22.9-0.9,34,1c16.3,3.3,30.9,11.8,45.5,19.4
	c10.5,4.9,22.2,9,34,6.3c17.2-1,28.4-16.6,44.6-20.6c13.5-3.6,28.2-1.4,41.1,3.7c16.7,7.5,32.4,18.7,51.3,19.9c11.9,1.8,24.5,0,35-6
	c16.2-8.6,33-18.6,52-18.1c16.9-0.8,32.4,7.2,46.7,15.3c16,9,35.4,11.9,53.3,7.7c19.7-3.9,34.3-20.2,54.1-23.7
	c13.8-1.3,28,0.4,40.8,5.8c12.2,4.8,23.2,12.8,36.1,16c14,2.5,29.2,1.2,41.4-6.7c12.8-6.9,25.9-17.5,41.5-14
	c10.4,1.7,19.6,6.9,29.3,10.5c5.2,2.1,11,0.5,15.8-1.8c-1.6-7.4-7-12.9-12-18.3c11.3,2.8,22.7,7.1,34.4,6.7c5,1.4,7.4-4.5,6.2-8.2
	c-1-3.9-5.5-5.4-8.4-7.5c-7.9-4-16.5-6.7-24.5-10.4c6.5-0.6,13.2-0.8,19.6-2.2c3-0.7,5.2-4.5,3.6-7.3c-1.4-4.8-6.8-5.8-10.7-8
	C1126.2,505.6,1114.7,511,1103.2,513.2"></path>
<path class="st5 wSuKBmgc_16" d="M198.6,417.5c-3.4,4.2-9.4,17.7-10.2,22.8c-1.3,19.3,1.3,38.7,0.7,58c22.1,5.1,44.9,1.3,67-2.3
	c21.4-3.9,42.6,3.9,64,2.9c12.4-0.2,24.6-2.7,37-2.9c24.3-0.8,48.4,2,72.6,4.5c20.9,2,42.2,3.8,62.8-1.2c19.9-4.9,40.8-4.3,60.6,0.7
	c15.7,3.1,30.9,9.2,47.1,9.5c11-0.4,21.5-4.1,32.3-5.9c26.2-2.1,52.4,0.6,78.6,0.4c50.1,0.2,100.2,4.2,150.1,7.8
	c43.4,1.3,86.5-6.2,129.9-5.8c29.8,0.1,59.6,6.6,89.3,2.4c8.1-1.5,17.2-1.6,24.2-6.7c3.3-10.3,2.5-21.5,5.1-32.1
	c3.9-12.9,2.3-27.5-5.8-38.4c-3.4-4-11.5-12.5-16.6-13.7"></path>
<path class="st0 wSuKBmgc_17" d="M1114.9,414.9c1.9-2.7,4.8-5.3,5.1-8.8c1-18.6-0.2-37.5-5.4-55.4c-10.3-36.4-33.3-67.9-60.4-93.7
	c-45.3-42.4-101.7-70.8-159.8-91.3c-89.8-30.8-185.4-42.3-279.9-38.1c-71.9,3.1-143.7,15.4-211.8,38.9
	c-58,21.1-114.6,49.5-159.4,92.8c-27.4,26.5-50,59.3-59.3,96.7c-3.6,15.3-5.7,31.3-4.1,47c-0.5,6.9,5.2,13.6,12.1,14
	c303.3,0.1,606.7-0.1,910.1,0.1C1106.1,416.3,1111.6,418.2,1114.9,414.9z"></path>
<style data-made-with="vivus-instant">.wSuKBmgc_0{stroke-dasharray:1112 1114;stroke-dashoffset:1113;animation:wSuKBmgc_draw 1000ms ease-in-out 0ms forwards;}.wSuKBmgc_1{stroke-dasharray:113 115;stroke-dashoffset:114;animation:wSuKBmgc_draw 1000ms ease-in-out 29ms forwards;}.wSuKBmgc_2{stroke-dasharray:110 112;stroke-dashoffset:111;animation:wSuKBmgc_draw 1000ms ease-in-out 58ms forwards;}.wSuKBmgc_3{stroke-dasharray:109 111;stroke-dashoffset:110;animation:wSuKBmgc_draw 1000ms ease-in-out 88ms forwards;}.wSuKBmgc_4{stroke-dasharray:110 112;stroke-dashoffset:111;animation:wSuKBmgc_draw 1000ms ease-in-out 117ms forwards;}.wSuKBmgc_5{stroke-dasharray:110 112;stroke-dashoffset:111;animation:wSuKBmgc_draw 1000ms ease-in-out 147ms forwards;}.wSuKBmgc_6{stroke-dasharray:110 112;stroke-dashoffset:111;animation:wSuKBmgc_draw 1000ms ease-in-out 176ms forwards;}.wSuKBmgc_7{stroke-dasharray:113 115;stroke-dashoffset:114;animation:wSuKBmgc_draw 1000ms ease-in-out 205ms forwards;}.wSuKBmgc_8{stroke-dasharray:109 111;stroke-dashoffset:110;animation:wSuKBmgc_draw 1000ms ease-in-out 235ms forwards;}.wSuKBmgc_9{stroke-dasharray:114 116;stroke-dashoffset:115;animation:wSuKBmgc_draw 1000ms ease-in-out 264ms forwards;}.wSuKBmgc_10{stroke-dasharray:114 116;stroke-dashoffset:115;animation:wSuKBmgc_draw 1000ms ease-in-out 294ms forwards;}.wSuKBmgc_11{stroke-dasharray:110 112;stroke-dashoffset:111;animation:wSuKBmgc_draw 1000ms ease-in-out 323ms forwards;}.wSuKBmgc_12{stroke-dasharray:7 9;stroke-dashoffset:8;animation:wSuKBmgc_draw 1000ms ease-in-out 352ms forwards;}.wSuKBmgc_13{stroke-dasharray:3039 3041;stroke-dashoffset:3040;animation:wSuKBmgc_draw 1000ms ease-in-out 382ms forwards;}.wSuKBmgc_14{stroke-dasharray:0 2;stroke-dashoffset:1;animation:wSuKBmgc_draw 1000ms ease-in-out 411ms forwards;}.wSuKBmgc_15{stroke-dasharray:2266 2268;stroke-dashoffset:2267;animation:wSuKBmgc_draw 1000ms ease-in-out 441ms forwards;}.wSuKBmgc_16{stroke-dasharray:1099 1101;stroke-dashoffset:1100;animation:wSuKBmgc_draw 1000ms ease-in-out 470ms forwards;}.wSuKBmgc_17{stroke-dasharray:2157 2159;stroke-dashoffset:2158;animation:wSuKBmgc_draw 1000ms ease-in-out 500ms forwards;}@keyframes wSuKBmgc_draw{100%{stroke-dashoffset:0;}}@keyframes wSuKBmgc_fade{0%{stroke-opacity:1;}92.98245614035088%{stroke-opacity:1;}100%{stroke-opacity:0;}}</style></svg>
